PathFileType	4	(X/Y/Z)	Patient5_TMGait_0pt45_1_right_04.trc.trc
DataRate	CameraRate	NumFrames	NumMarkers	Units	OrigDataRate	OrigDataStartFrame	OrigNumFrames
55.776892430279	55.776892430279	5	32	mm	55.776892430279	1	       141
Frame#	Time	R.ASIS			L.ASIS			Chest			R.Shoulder			Neck			L.Shoulder			L.Elbow			L.Wrist			R.Elbow			R.Wrist			L.Thigh.Superior			L.Thigh.Lateral			L.Thigh.Inferior			L.Patella			L.Shank.Superior			L.Shank.Lateral			L.Shank.Inferior			L.Heel			L.Midfoot.Lateral			L.Midfoot.Superior			L.Toe			R.Thigh.Superior			R.Thigh.Lateral			R.Thigh.Inferior			R.Patella			R.Shank.Superior			R.Shank.Lateral			R.Shank.Inferior			R.Heel			R.Midfoot.Lateral			R.Midfoot.Superior			R.Toe			
		X1	Y1	Z1	X2	Y2	Z2	X3	Y3	Z3	X4	Y4	Z4	X5	Y5	Z5	X6	Y6	Z6	X7	Y7	Z7	X8	Y8	Z8	X9	Y9	Z9	X10	Y10	Z10	X11	Y11	Z11	X12	Y12	Z12	X13	Y13	Z13	X14	Y14	Z14	X15	Y15	Z15	X16	Y16	Z16	X17	Y17	Z17	X18	Y18	Z18	X19	Y19	Z19	X20	Y20	Z20	X21	Y21	Z21	X22	Y22	Z22	X23	Y23	Z23	X24	Y24	Z24	X25	Y25	Z25	X26	Y26	Z26	X27	Y27	Z27	X28	Y28	Z28	X29	Y29	Z29	X30	Y30	Z30	X31	Y31	Z31	X32	Y32	Z32	

1	6.110000000000	928.637929998360	1020.746676469173	533.761700838410	956.988118633798	966.624925363090	294.424073399653	1000.302093724177	1455.495459470655	408.195572483643	865.376514079487	1521.327933936450	547.252044246493	880.840778587020	1574.275727271883	360.247302089571	985.427258990278	1515.995152203723	204.107994431451	1002.057808791654	1184.540013114395	83.411725737365	1182.245499521744	965.629023152101	119.197219329962	752.263017474099	1201.444898955114	666.272723073225	964.167797687127	1003.407835943740	649.078362943457	970.033667267642	747.379075679089	295.548163730592	893.142496469409	677.857262768585	259.335040163551	964.433234614462	619.136873964841	321.292707966757	959.623999381617	503.396289457842	330.971745537768	911.824749543955	402.262886281487	355.906205785327	840.272187917954	332.327479605456	282.978941745711	877.493388864710	280.218497651454	370.532179515808	741.133490436382	50.289764298825	384.624230219366	827.055814037648	27.161006026852	320.136920011141	925.733753248860	89.193092718537	360.747642074092	1033.031432797782	46.515113330115	362.114687482489	966.740565886550	803.808670960405	595.289091670021	887.138247800879	726.039677888621	651.645990543757	987.467031567634	678.056436284948	606.320488342342	999.532582729094	586.167054992753	659.557800668517	975.766002495454	478.556978894151	628.149783805014	885.516480076064	412.558276859671	690.694967206186	969.168691099113	339.805726380237	641.805544686322	880.056772934575	105.200423680509	604.078791913657	935.170871766247	77.672191155258	695.767837965075	1035.692765214883	151.186096806146	712.093065734844	1137.597041865188	115.979718860082	742.252910935293	
2	6.127928571429	927.404821502544	1021.256107338128	535.476114712249	954.083119349898	966.390074664524	294.057083428125	996.682298905199	1454.996680324667	407.897599579745	861.934949849987	1521.126332224065	546.942325015247	877.097161294300	1573.585521148263	359.910808761229	981.680770660015	1515.016929963627	203.775336765411	999.491283151033	1182.999534298667	84.803084958179	1180.438741924881	964.838580928574	121.498961385968	750.209172966683	1201.089882148779	666.828882106324	963.221982333221	1004.357356283136	648.724284027575	966.188116138146	746.237466193519	296.879300523089	889.163861930974	677.349597422265	259.830140343344	958.615488461204	618.059330551318	323.074767565016	952.933595365782	502.705530956061	332.748308769370	904.323653948965	401.082553753365	356.738105176737	833.747275031768	331.857002535585	283.645106330490	869.738784632909	279.797459291693	371.685032346875	732.518546912233	50.163066893985	384.928109976019	818.462170904255	27.301410073790	320.306698585588	917.035069478751	88.677048261705	361.324935382793	1024.538371084247	46.329034926952	362.062833512990	970.250877745365	806.616111953441	595.308525408087	893.863960197822	726.985586205421	652.287015767072	995.166366936307	681.671313272167	605.726951615041	1010.169005292716	589.894383436373	658.506591174149	987.779685141662	481.805537951382	627.350400861114	899.609107811597	414.320899224360	691.266804479633	983.350314681446	342.895032958788	640.759787320841	897.403575124460	107.056250210612	603.901506256600	953.597437233746	80.645914060087	695.551220363491	1053.357490364099	155.558463474390	710.370976116910	1155.992931080623	121.615490601760	739.615075488442	
3	6.145857142857	926.262659220479	1021.695544761952	537.077492337978	951.267707037251	966.132423078001	293.664583367696	993.082789648126	1454.488391532691	407.634375979697	858.499230386501	1520.867285102021	546.700987616308	873.350509587458	1572.876958305846	359.641061303560	977.907201106383	1514.044487516448	203.489104555826	996.858908195557	1181.470054197845	86.216147461003	1178.423895137858	963.944084038030	123.831591584239	748.117052492497	1200.673129442529	667.411769163470	962.284217752656	1005.297316677089	648.558410655101	962.391052480175	745.101957593909	298.174124271924	885.179995242868	676.846047383317	260.313083184240	952.791202479498	616.982366045794	324.813642383282	946.216718937420	502.039716509580	334.449728162823	896.868533803114	400.022330113415	357.582589984733	827.178430119319	331.409086953535	284.285819861509	862.013053936793	279.399478381255	372.776838211721	723.995762705836	50.050919455494	385.219022874894	809.955774226905	27.437666416013	320.474759857402	908.428613825682	88.246072286138	361.837163630581	1016.129752346825	46.150881652067	362.016112086447	973.891161065966	809.383629714412	595.130249458508	900.722569666721	727.971081833964	652.883209099821	1002.866768028408	685.260830313158	605.005712786505	1020.797866819977	593.626348132868	657.387325431055	999.548818769623	484.985740781785	626.496149548337	913.412851436837	416.152485091589	691.824560307064	997.043543694276	345.913779502504	639.591460111671	913.694255007988	109.038827677267	603.642344471091	971.140105195338	83.539835417168	695.080952949824	1070.254511341832	159.705774457054	708.268990137155	1173.610307229361	126.852657178681	736.333630090392	
4	6.163785714286	925.282701104792	1021.992300148584	538.438036571299	948.621596962839	965.847545327524	293.235847092072	989.530932571617	1453.977200367483	407.434942544176	855.099177902410	1520.511088435534	546.602575011738	869.601526448614	1572.143612250690	359.515369499859	974.071609412317	1513.099597015249	203.287168913397	994.057748199667	1179.976379457857	87.661388976233	1175.973099355927	962.867385145229	126.213289038619	745.978782415558	1200.154402034345	668.056334555863	961.365397623246	1006.205590999968	648.737908200072	958.702963940764	743.994627175140	299.386174786708	881.193114338967	676.355517646357	260.770013467748	946.994790616453	615.918039786758	326.434821693186	939.483119363385	501.415696738987	335.979048233363	889.506525416799	399.166150455905	358.410802799135	820.524630905159	331.019400741145	284.872934938021	854.345216856570	279.047336912222	373.743272542615	715.629753792154	49.970655568591	385.480727963542	801.595201098988	27.562511839179	320.639754855064	899.979666992700	87.953996525319	362.234997848740	1007.860388638745	45.986074070373	361.978828169295	977.704989557721	812.015401111738	594.607651426645	907.738203197014	728.984315275647	653.370846950822	1010.476676802604	688.734995616299	604.034985157434	1031.292644833693	597.287827606570	656.102583086741	1010.773927345347	487.981346671695	625.494671187587	926.589983736269	418.045603080013	692.298708914092	1009.757343802687	348.747707823281	638.170981986066	928.027581893871	111.179060162992	603.211168239772	987.011120027735	86.235920634097	694.129202941417	1085.679529211076	163.388780926412	705.472961559640	1189.723548616881	131.327742115800	731.917088474046	
5	6.181714285714	924.496355033171	1022.089644271539	539.444425511707	946.189589371687	965.547440422999	292.775117618659	986.038562315030	1453.483116748904	407.313072708390	851.760276145130	1520.043581162409	546.704867020928	865.839670674463	1571.391110837852	359.592787039895	970.122882255625	1512.209033303093	203.186587759395	990.976781017062	1178.543326111722	89.145862117306	1172.891982890597	961.563397992218	128.658616141257	743.803809354982	1199.518175767023	668.792944904959	960.469420833298	1007.056412257790	649.361023647590	955.161541822972	742.939926089759	300.465925355451	877.188625449917	675.890581740904	261.186772295088	941.254909675467	614.885014710950	327.857061325393	932.734921065631	500.839981303839	337.244927712252	882.240285135681	398.546458402136	359.163003647964	813.723070522026	330.727228831857	285.382975711672	846.737172924919	278.760876150206	374.532195578400	707.416186704103	49.938119006749	385.698348561644	793.371239046892	27.671820744145	320.798177599099	891.686066727158	87.822681722902	362.488786376528	999.717001856255	45.838828360512	361.951660063615	981.657981618987	814.418403370072	593.635351793508	914.868715111647	729.982985743548	653.688706145125	1017.890579187276	691.994970048136	602.732522712613	1041.507655103379	600.780112504013	654.557832604469	1021.227316763585	490.681667731765	624.239402932375	938.904657154534	419.946602382251	692.600594534510	1021.175096655895	351.291916403957	636.390518061651	939.892922707681	113.440019034618	602.543565105983	1000.759063071413	88.626702072351	692.534315638966	1099.215397383162	166.432561125682	701.777413751382	1203.896797929140	134.811688620951	726.073021141776	
